# xmcd
#
# Track frame offsets:
#	150
#	16550
#	29692
#	44665
#	58755
#	70435
#	85360
#	101570
#	112870
#	128065
#	143797
#	160635
#
# Disc length: 2322 seconds
#
# Revision: 1
# Processed by: cddbd v1.4b42PL0 Copyright (c) Steve Scherf et al.
# Submitted via: audiograbber 1.80
#
DISCID=9e09100c
DTITLE=Chico Queiroga - Pálpebras
DYEAR=1900
DGENRE=
TTITLE0=Minha Maior Vontade
TTITLE1=Gosto de Mel
TTITLE2=Topo da Favela
TTITLE3=Barracão do Zé
TTITLE4=O Varão
TTITLE5=Negro é Cultura
TTITLE6=Não Me Leve a Mal
TTITLE7=Beijo de Mar
TTITLE8=Jogos Verdes
TTITLE9=Minha Namorada
TTITLE10=Pálpebras
TTITLE11=Acompanhando o Sol
EXTD=
EXTT0=
EXTT1=
EXTT2=
EXTT3=
EXTT4=
EXTT5=
EXTT6=
EXTT7=
EXTT8=
EXTT9=
EXTT10=
EXTT11=
PLAYORDER=
